<svg xmlns="http://www.w3.org/2000/svg" viewBox="0 0 32 32">
  <defs>
    <linearGradient id="bg" x1="0%" y1="0%" x2="100%" y2="100%">
      <stop offset="0%" style="stop-color:#0d6efd"/>
      <stop offset="100%" style="stop-color:#0dcaf0"/>
    </linearGradient>
  </defs>
  <rect width="32" height="32" rx="6" fill="url(#bg)"/>
  <path d="M16 5c-3 0-5.5 2-6 5-.3 2 .5 4 1.5 6l1.5 6c.3 1.5 1 2.5 2 3 .8.4 1.5-.5 1.5-1.5l.5-4c0-.3.3-.5.5-.5s.5.2.5.5l.5 4c0 1 .7 1.9 1.5 1.5 1-.5 1.7-1.5 2-3l1.5-6c1-2 1.8-4 1.5-6-.5-3-3-5-6-5z" fill="white"/>
</svg>
